Coordinates
version=1
nRows=27
nColumns=38
inDegrees=no

Units are S.I. units (second, meters, Newtons, ...)
If the header above contains a line with 'inDegrees', this indicates whether rotational values are in degrees (yes) or radians (no).

endheader
time	pelvis_tilt	pelvis_list	pelvis_rotation	pelvis_tx	pelvis_ty	pelvis_tz	hip_flexion_r	hip_adduction_r	hip_rotation_r	knee_angle_r	ankle_angle_r	subtalar_angle_r	mtp_angle_r	hip_flexion_l	hip_adduction_l	hip_rotation_l	knee_angle_l	ankle_angle_l	subtalar_angle_l	mtp_angle_l	lumbar_extension	lumbar_bending	lumbar_rotation	arm_flex_r	arm_add_r	arm_rot_r	elbow_flex_r	pro_sup_r	wrist_flex_r	wrist_dev_r	arm_flex_l	arm_add_l	arm_rot_l	elbow_flex_l	pro_sup_l	wrist_flex_l	wrist_dev_l
21.49	3.06521	1.22128	-1.38828	0.621787	-0.260876	0.962927	-0.395874	-0.00339847	-0.0371806	0.170515	-0.304015	0	0	-0.415016	-0.0786926	-0.0887521	0.163858	-0.248809	0	0	-0.429393	0.0227895	0.190389	0.0513392	-0.548321	-0.239568	1.76217	1.5708	0	0	0.697887	-0.286489	0.641465	1.30731	1.5708	0	0
21.5	3.06457	1.22081	-1.38756	0.622531	-0.260298	0.962969	-0.399218	-0.00226936	-0.0393847	0.165842	-0.305465	0	0	-0.415952	-0.0801257	-0.0886476	0.163973	-0.248687	0	0	-0.428177	0.0230526	0.189822	0.0543727	-0.547286	-0.236742	1.75844	1.5708	0	0	0.699159	-0.287279	0.643407	1.30475	1.5708	0	0
21.51	3.06299	1.22031	-1.38633	0.623284	-0.259752	0.963013	-0.402168	-0.000995344	-0.0411311	0.161724	-0.307179	0	0	-0.417001	-0.081614	-0.0881692	0.163876	-0.248592	0	0	-0.426954	0.0235347	0.189837	0.0572957	-0.546297	-0.234347	1.75481	1.5708	0	0	0.700387	-0.287973	0.645559	1.30244	1.5708	0	0
21.52	3.06103	1.22001	-1.38526	0.624081	-0.259213	0.96303	-0.404387	0.000311915	-0.0428412	0.158412	-0.308903	0	0	-0.417981	-0.0829531	-0.0877143	0.163735	-0.248417	0	0	-0.425633	0.0239713	0.190509	0.0600042	-0.545245	-0.232315	1.75131	1.5708	0	0	0.701379	-0.28863	0.647558	1.30054	1.5708	0	0
21.53	3.05898	1.21978	-1.38437	0.62489	-0.258659	0.963044	-0.406444	0.00155497	-0.0446603	0.155285	-0.310514	0	0	-0.418955	-0.084151	-0.087526	0.163554	-0.248123	0	0	-0.424278	0.0243992	0.191321	0.062658	-0.544301	-0.230187	1.74806	1.5708	0	0	0.701962	-0.289291	0.649068	1.2988	1.5708	0	0
21.54	3.05684	1.21951	-1.38365	0.625675	-0.258127	0.963047	-0.408275	0.00264654	-0.0462001	0.152679	-0.311839	0	0	-0.420064	-0.0852019	-0.0874959	0.163344	-0.247601	0	0	-0.423123	0.0248757	0.192197	0.0655062	-0.54366	-0.227709	1.74499	1.5708	0	0	0.702442	-0.290042	0.650206	1.29713	1.5708	0	0
21.55	3.0547	1.21918	-1.38312	0.626427	-0.257635	0.96303	-0.409758	0.00368356	-0.0476336	0.150747	-0.312885	0	0	-0.421212	-0.0861187	-0.0875929	0.163241	-0.246892	0	0	-0.422122	0.0252501	0.193134	0.068614	-0.542841	-0.225137	1.74173	1.5708	0	0	0.703221	-0.290875	0.651419	1.2952	1.5708	0	0
21.56	3.05194	1.21902	-1.38225	0.627195	-0.257146	0.962991	-0.410808	0.00488169	-0.0485257	0.149078	-0.313738	0	0	-0.422111	-0.0871299	-0.088221	0.163194	-0.246307	0	0	-0.420961	0.0255524	0.194348	0.071617	-0.54195	-0.222509	1.73843	1.5708	0	0	0.703957	-0.291742	0.652522	1.29325	1.5708	0	0
21.57	3.04913	1.21906	-1.38126	0.627951	-0.256681	0.962942	-0.411551	0.00609971	-0.0490436	0.147475	-0.314497	0	0	-0.422533	-0.0881786	-0.0891143	0.163504	-0.245763	0	0	-0.419692	0.0258071	0.195343	0.074632	-0.541139	-0.219608	1.73548	1.5708	0	0	0.704439	-0.292845	0.653247	1.29155	1.5708	0	0
21.58	3.04653	1.21917	-1.38028	0.628663	-0.256264	0.962902	-0.412096	0.00726748	-0.0491885	0.146141	-0.315152	0	0	-0.42263	-0.0892069	-0.089805	0.164219	-0.245085	0	0	-0.418659	0.0259989	0.195859	0.0777441	-0.540396	-0.216412	1.73305	1.5708	0	0	0.704736	-0.293945	0.653348	1.2901	1.5708	0	0
21.59	3.04399	1.21926	-1.37948	0.629335	-0.255843	0.962863	-0.41261	0.00835351	-0.0486896	0.144941	-0.315488	0	0	-0.422746	-0.0901393	-0.0909221	0.164953	-0.24428	0	0	-0.41774	0.0262042	0.19633	0.0808431	-0.539745	-0.212943	1.73086	1.5708	0	0	0.704619	-0.295162	0.652828	1.28914	1.5708	0	0
21.6	3.04208	1.21945	-1.37902	0.629913	-0.255404	0.962809	-0.413013	0.00918691	-0.0484705	0.143724	-0.315693	0	0	-0.422756	-0.0908508	-0.0921695	0.165766	-0.243402	0	0	-0.416758	0.0263962	0.196421	0.0838666	-0.53918	-0.209339	1.72888	1.5708	0	0	0.703971	-0.29648	0.651777	1.2887	1.5708	0	0
21.61	3.0409	1.21951	-1.37898	0.630435	-0.254946	0.962749	-0.413754	0.00984312	-0.0484658	0.142281	-0.315912	0	0	-0.422979	-0.0913986	-0.0933072	0.16657	-0.242414	0	0	-0.41571	0.0266274	0.195665	0.0876009	-0.538622	-0.204641	1.72657	1.5708	0	0	0.702724	-0.298146	0.650046	1.28837	1.5708	0	0
21.62	3.03881	1.21923	-1.37841	0.630969	-0.254626	0.962742	-0.414462	0.0107911	-0.0468575	0.141311	-0.316179	0	0	-0.423496	-0.0921359	-0.0942219	0.167245	-0.24154	0	0	-0.415329	0.0272414	0.195214	0.0919147	-0.538213	-0.199638	1.72433	1.5708	0	0	0.701511	-0.299687	0.647852	1.28803	1.5708	0	0
21.63	3.0372	1.2187	-1.37822	0.631458	-0.254334	0.962753	-0.41551	0.011621	-0.0451026	0.140375	-0.316289	0	0	-0.424333	-0.092723	-0.0947872	0.167705	-0.240959	0	0	-0.415309	0.027887	0.194731	0.0961175	-0.537584	-0.194991	1.72229	1.5708	0	0	0.700283	-0.301134	0.645503	1.28783	1.5708	0	0
21.64	3.03584	1.21808	-1.37821	0.631939	-0.253988	0.962767	-0.416822	0.0123836	-0.0436934	0.139407	-0.316275	0	0	-0.425368	-0.0933047	-0.095581	0.167946	-0.240696	0	0	-0.415208	0.0283973	0.194337	0.0996473	-0.536645	-0.190987	1.72051	1.5708	0	0	0.69896	-0.302562	0.643247	1.28784	1.5708	0	0
21.65	3.03446	1.21745	-1.37816	0.632393	-0.253653	0.962786	-0.418069	0.0130659	-0.0425193	0.13866	-0.316318	0	0	-0.426348	-0.0939056	-0.0962358	0.168289	-0.240421	0	0	-0.415108	0.0288229	0.194143	0.10264	-0.535489	-0.187751	1.71892	1.5708	0	0	0.697769	-0.30391	0.641404	1.28785	1.5708	0	0
21.66	3.03267	1.21693	-1.37792	0.632832	-0.253355	0.962786	-0.418976	0.0137467	-0.041324	0.1381	-0.316364	0	0	-0.427296	-0.0944894	-0.0968531	0.168582	-0.240047	0	0	-0.41495	0.029288	0.194394	0.105337	-0.534345	-0.185087	1.71747	1.5708	0	0	0.696726	-0.305237	0.640046	1.28794	1.5708	0	0
21.67	3.03055	1.21653	-1.37755	0.633276	-0.253072	0.962769	-0.419674	0.0145033	-0.0400095	0.137536	-0.316337	0	0	-0.428202	-0.0950249	-0.0975184	0.168773	-0.239516	0	0	-0.414677	0.029718	0.195006	0.107821	-0.533308	-0.182745	1.71589	1.5708	0	0	0.695736	-0.306634	0.639131	1.28813	1.5708	0	0
21.68	3.02829	1.21622	-1.37722	0.633718	-0.252813	0.962751	-0.420178	0.0152167	-0.0384964	0.137107	-0.316231	0	0	-0.429046	-0.0954305	-0.0981747	0.168985	-0.238656	0	0	-0.414421	0.0300869	0.19591	0.110233	-0.532488	-0.180662	1.71419	1.5708	0	0	0.694811	-0.308052	0.638442	1.28849	1.5708	0	0
21.69	3.02549	1.21585	-1.37666	0.63418	-0.252588	0.962756	-0.420551	0.0159091	-0.0375392	0.136647	-0.316275	0	0	-0.429999	-0.0958449	-0.0991137	0.1691	-0.237673	0	0	-0.414258	0.0304813	0.197345	0.112469	-0.531856	-0.178896	1.71245	1.5708	0	0	0.694054	-0.309174	0.637958	1.28867	1.5708	0	0
21.7	3.02194	1.21552	-1.3756	0.634636	-0.252394	0.962774	-0.420666	0.0166967	-0.037337	0.13617	-0.316647	0	0	-0.430882	-0.0963875	-0.1005	0.169016	-0.237151	0	0	-0.41418	0.0311561	0.199109	0.114493	-0.531518	-0.177183	1.71114	1.5708	0	0	0.693257	-0.310075	0.637342	1.28887	1.5708	0	0
21.71	3.01889	1.21532	-1.37477	0.635044	-0.252217	0.962775	-0.420636	0.0173121	-0.0372767	0.135839	-0.317095	0	0	-0.431494	-0.0968076	-0.101683	0.168991	-0.237023	0	0	-0.413985	0.0318496	0.200454	0.116638	-0.531157	-0.175212	1.70992	1.5708	0	0	0.692172	-0.31083	0.636266	1.28902	1.5708	0	0
21.72	3.01641	1.21516	-1.37414	0.635395	-0.252096	0.962765	-0.420553	0.0177802	-0.0372719	0.135676	-0.317539	0	0	-0.431858	-0.0971816	-0.10221	0.169286	-0.236729	0	0	-0.413949	0.0325248	0.201401	0.118876	-0.530582	-0.173462	1.70889	1.5708	0	0	0.690882	-0.311235	0.634606	1.28909	1.5708	0	0
21.73	3.01375	1.21513	-1.3735	0.63576	-0.25195	0.962752	-0.420343	0.0182592	-0.0369635	0.135459	-0.317879	0	0	-0.432187	-0.0975468	-0.10293	0.16949	-0.236386	0	0	-0.413742	0.0331876	0.202668	0.120709	-0.529849	-0.172045	1.70817	1.5708	0	0	0.689791	-0.311723	0.633179	1.28907	1.5708	0	0
21.74	3.01069	1.21522	-1.37267	0.63616	-0.251739	0.962734	-0.420041	0.0188393	-0.0362396	0.135087	-0.318254	0	0	-0.432655	-0.0980058	-0.104264	0.169354	-0.235919	0	0	-0.413169	0.0338548	0.204156	0.122172	-0.529142	-0.170502	1.70758	1.5708	0	0	0.688558	-0.312333	0.631689	1.28905	1.5708	0	0
21.75	3.00809	1.21537	-1.37206	0.636498	-0.25157	0.962725	-0.419738	0.0193009	-0.0350753	0.13471	-0.318724	0	0	-0.433075	-0.0982871	-0.105494	0.169023	-0.235574	0	0	-0.412627	0.0345378	0.205319	0.123736	-0.528767	-0.168571	1.70706	1.5708	0	0	0.687103	-0.31274	0.629707	1.28892	1.5708	0	0
